<?xml version="1.0" encoding="UTF-8"?>
<!DOCTYPE svg PUBLIC "-//W3C//DTD SVG 1.1//EN" "http://www.w3.org/Graphics/SVG/1.1/DTD/svg11.dtd">
<!-- Creator: CorelDRAW 2021 (64-Bit) -->
<svg xmlns="http://www.w3.org/2000/svg" xml:space="preserve" width="20.1654in" height="20.1654in" version="1.1" style="shape-rendering:geometricPrecision; text-rendering:geometricPrecision; image-rendering:optimizeQuality; fill-rule:evenodd; clip-rule:evenodd"
viewBox="0 0 6304.6 6304.6"
 xmlns:xlink="http://www.w3.org/1999/xlink"
 xmlns:xodm="http://www.corel.com/coreldraw/odm/2003">
 <defs>
  <style type="text/css">
   <![CDATA[
    .str0 {stroke:#332C2B;stroke-width:2.46;stroke-miterlimit:2.61313}
    .fil0 {fill:none}
   ]]>
  </style>
   <clipPath id="id0">
    <path d="M349.12 1.23l5606.36 0c191.34,0 347.89,156.55 347.89,347.89l0 5606.36c0,191.34 -156.55,347.89 -347.89,347.89l-5606.36 0c-191.34,0 -347.89,-156.55 -347.89,-347.89l0 -5606.36c0,-191.34 156.55,-347.89 347.89,-347.89z"/>
   </clipPath>
    <clipPath id="id1">
     <path d="M349.12 1.23l5606.36 0c191.34,0 347.89,156.55 347.89,347.89l0 5606.36c0,191.34 -156.55,347.89 -347.89,347.89l-5606.36 0c-191.34,0 -347.89,-156.55 -347.89,-347.89l0 -5606.36c0,-191.34 156.55,-347.89 347.89,-347.89z"/>
    </clipPath>
    <clipPath id="id2">
     <path d="M349.12 1.23l5606.36 0c191.34,0 347.89,156.55 347.89,347.89l0 5606.36c0,191.34 -156.55,347.89 -347.89,347.89l-5606.36 0c-191.34,0 -347.89,-156.55 -347.89,-347.89l0 -5606.36c0,-191.34 156.55,-347.89 347.89,-347.89z"/>
    </clipPath>
 </defs>
 <g id="Layer_x0020_1">
  <metadata id="CorelCorpID_0Corel-Layer"/>
  <g>
  </g>
  <g style="clip-path:url(#id0)">
   <g>
   </g>
   <g style="clip-path:url(#id1)">
    <image id="Screenshot_x0020_2026-01-12_x0020_003614.png" x="-162.48" y="-281.9" width="6683.12" height="6785.74" xlink:href="favicon_Images\favicon_ImgID1.png"/>
   </g>
   <g style="clip-path:url(#id2)">
   </g>
  </g>
  <path class="fil0 str0" d="M349.12 1.23l5606.36 0c191.34,0 347.89,156.55 347.89,347.89l0 5606.36c0,191.34 -156.55,347.89 -347.89,347.89l-5606.36 0c-191.34,0 -347.89,-156.55 -347.89,-347.89l0 -5606.36c0,-191.34 156.55,-347.89 347.89,-347.89z"/>
 </g>
</svg>
